<svg width="1723" height="400" viewBox="0 0 1723 400" fill="none" xmlns="http://www.w3.org/2000/svg">
<path d="M576 140.034H540V265.988H576V140.034Z" fill="white"/>
<path fill-rule="evenodd" clip-rule="evenodd" d="M503.451 267.988C540.986 267.988 567.938 235.793 567.938 202.988C567.938 172.002 541.165 137.988 503.451 137.988C467.384 137.988 440 167.09 440 202.988C440 238.887 467.384 267.988 503.451 267.988ZM507.403 235.133C525.895 235.133 540 221.356 540 202.988C540 184.62 525.895 170.843 507.403 170.843C488.91 170.843 474.588 185.235 474.588 202.988C474.588 220.741 488.91 235.133 507.403 235.133Z" fill="white"/>
<path fill-rule="evenodd" clip-rule="evenodd" d="M720.614 175.148L687.649 190.462C683.443 180.989 674.576 173.365 662.584 173.365C645.535 173.365 632.332 186.633 632.332 203C632.332 219.367 645.535 232.635 662.584 232.635C674.85 232.635 683.846 225.768 687.929 215.82L720.827 231.332C710.72 253.036 689.034 268 662 268C625.6 268 597 238.899 597 203C597 167.101 626.9 138 662 138C687.355 138 709.996 153.185 720.614 175.148Z" fill="white"/>
<path d="M777 140.01H741V266.009H777V140.01Z" fill="white"/>
<path d="M821 189.009L857 186.009V266.009H821V189.009Z" fill="white"/>
<path d="M901 189.009L937 186.009V266.009H901V189.009Z" fill="white"/>
<path d="M809.264 138C841.122 138 856.999 162.408 856.999 188L820.999 194.693C820.999 183.626 810.999 173.664 798.999 173.664C786.999 173.664 776.999 184.007 776.999 196.007L767.465 182.551C763.712 173.664 777.312 138 809.264 138Z" fill="white"/>
<path d="M889.264 138C921.122 138 936.999 162.408 936.999 188L900.999 194.693C900.999 183.626 890.999 173.664 878.999 173.664C866.999 173.664 856.999 184.007 856.999 196.007L847.465 182.551C843.712 173.664 857.312 138 889.264 138Z" fill="white"/>
<path d="M889.264 138C921.122 138 937 162.408 937 188L901 191C901 179.933 891 171 879 171C867 171 857 179 857 191L839 172C847 154 857.313 138 889.264 138Z" fill="white"/>
<path d="M992.45 265.908C1005.4 265.908 1015.9 255.407 1015.9 242.454C1015.9 229.501 1005.4 219 992.45 219C979.497 219 968.996 229.501 968.996 242.454C968.996 255.407 979.497 265.908 992.45 265.908Z" fill="white"/>
<path d="M244.676 287.237C244.676 297.452 233.464 302 219.62 302C205.777 302 194.564 297.452 194.564 287.237C194.564 278.066 199.867 286.64 219.62 286.64C239.373 286.64 244.676 278.55 244.676 287.237Z" fill="white"/>
<path d="M343.432 143.432L256.569 56.5685C225.327 25.3266 174.674 25.3266 143.432 56.5685L56.5686 143.432C25.3266 174.674 25.3267 225.327 56.5686 256.569L143.432 343.432C174.674 374.674 225.327 374.674 256.569 343.432L343.432 256.569C374.674 225.327 374.674 174.674 343.432 143.432Z" fill="#FFBA44"/>
<path d="M139.039 178.776C139.017 171.596 144.82 165.759 152 165.738L247.56 165.462C254.74 165.441 260.578 171.244 260.599 178.424L260.837 258.789C260.858 265.969 255.055 271.806 247.876 271.827L152.315 272.103C145.136 272.124 139.298 266.32 139.277 259.141L139.039 178.776Z" fill="white"/>
<path d="M245.799 165.338C245.799 190.467 225.293 210.839 199.997 210.839C174.701 210.839 154.195 190.467 154.195 165.338C154.195 140.209 174.701 119.838 199.997 119.838C225.293 119.838 245.799 140.209 245.799 165.338Z" fill="white"/>
<path d="M245.799 165.338C245.799 190.467 225.293 210.839 199.997 210.839H245.799V165.338Z" fill="white"/>
<path d="M199.997 210.839C174.701 210.839 154.195 190.467 154.195 165.338V210.839H199.997Z" fill="white"/>
<path d="M200.544 191.627C216.23 191.627 228.846 178.958 228.724 163.33C228.601 147.702 215.786 135.033 200.1 135.033C184.415 135.033 171.798 147.702 171.921 163.33C172.044 178.958 184.859 191.627 200.544 191.627Z" fill="#FFBA44"/>
<path d="M207.377 167.956C207.377 163.76 203.976 160.358 199.78 160.358C195.584 160.358 192.182 163.76 192.182 167.956V248.996C192.182 253.192 195.584 256.594 199.78 256.594C203.976 256.594 207.377 253.192 207.377 248.996V167.956Z" fill="#FFBA44"/>
<path d="M217.373 218.606H199.915C197.043 218.606 194.715 220.934 194.715 223.806V226.069C194.715 228.94 197.043 231.269 199.915 231.269H217.373C220.245 231.269 222.573 228.94 222.573 226.069V223.806C222.573 220.934 220.245 218.606 217.373 218.606Z" fill="#FFBA44"/>
<path d="M217.373 243.932H199.915C197.043 243.932 194.715 246.26 194.715 249.132V251.394C194.715 254.266 197.043 256.595 199.915 256.595H217.373C220.245 256.595 222.573 254.266 222.573 251.394V249.132C222.573 246.26 220.245 243.932 217.373 243.932Z" fill="#FFBA44"/>
<path d="M200.468 165.322C206.062 165.322 210.571 160.789 210.538 155.196C210.506 149.603 205.944 145.07 200.349 145.07C194.754 145.07 190.245 149.603 190.278 155.196C190.311 160.789 194.873 165.322 200.468 165.322Z" fill="white"/>
<mask id="mask0" mask-type="alpha" maskUnits="userSpaceOnUse" x="1045" y="83" width="678" height="244">
<path fill-rule="evenodd" clip-rule="evenodd" d="M1168.61 175.148L1135.65 190.462C1131.44 180.989 1122.58 173.365 1110.58 173.365C1093.54 173.365 1080.33 186.633 1080.33 203C1080.33 219.367 1093.54 232.635 1110.58 232.635C1122.85 232.635 1131.85 225.768 1135.93 215.82L1168.83 231.332C1158.72 253.036 1137.03 268 1110 268C1073.6 268 1045 238.899 1045 203C1045 167.101 1074.9 138 1110 138C1135.35 138 1158 153.185 1168.61 175.148Z" fill="black"/>
<path d="M1336 83.0537H1372V266.31H1336V83.0537Z" fill="black"/>
<path fill-rule="evenodd" clip-rule="evenodd" d="M1408.48 268C1370.94 268 1343.99 235.805 1343.99 203C1343.99 172.014 1370.76 138 1408.48 138C1444.54 138 1471.93 167.102 1471.93 203C1471.93 238.899 1444.54 268 1408.48 268ZM1404.53 235.144C1386.03 235.144 1371.93 221.368 1371.93 203C1371.93 184.632 1386.03 170.855 1404.53 170.855C1423.02 170.855 1437.34 185.247 1437.34 203C1437.34 220.753 1423.02 235.144 1404.53 235.144Z" fill="black"/>
<path d="M1176 139.867H1218.05L1264.4 248.194L1233.27 269.181L1176 139.867Z" fill="black"/>
<path d="M1320.48 139.863H1280.24L1242.28 254.083L1233.61 266.971L1231.35 275.542L1266.92 284.348L1320.48 139.863Z" fill="black"/>
<path fill-rule="evenodd" clip-rule="evenodd" d="M1202.96 291.381C1215.69 291.381 1228.41 284.704 1231.38 275.42L1266.93 284.324C1255.99 309.947 1238.43 326.572 1202.96 326.572H1198.4V291.381H1202.96Z" fill="black"/>
<path d="M1678 139.972H1642V266H1678V139.972Z" fill="black"/>
<path fill-rule="evenodd" clip-rule="evenodd" d="M1722.85 138.438C1720.14 138.215 1717.26 138.101 1714.2 138.101C1679.53 138.101 1666.92 171.864 1664 192.449L1678 213.189C1678 195.255 1691.07 178.351 1717.42 178.351H1722.85V138.438Z" fill="black"/>
<path fill-rule="evenodd" clip-rule="evenodd" d="M1556 138C1520.9 138 1491 167.101 1491 203C1491 238.898 1519.6 268 1556 268C1582.43 268 1603.82 254.817 1613.57 239.403L1583.9 225.406C1578.76 230.704 1571.79 234.549 1564.06 236.232C1561.56 236.85 1558.89 237.176 1556.07 237.176C1555.94 237.176 1555.82 237.176 1555.69 237.174C1555.56 237.176 1555.43 237.176 1555.3 237.176C1536.43 237.176 1521.81 222.191 1521.81 203.706C1521.81 203.592 1521.81 203.479 1521.81 203.368C1521.81 203.246 1521.81 203.123 1521.81 203C1521.81 184.125 1536.76 168.823 1556.07 168.823C1572.88 168.823 1584.27 182.301 1586.94 196.617C1590.65 196.544 1592.79 198.359 1592.79 204.314C1592.79 205.805 1592.68 207.269 1592.45 208.7L1616.28 215.772L1618.63 216.012C1626.34 166.984 1591.1 138 1556 138Z" fill="black"/>
<path d="M1508.13 188.012H1588.37L1618.63 216.012H1615.07H1508.58L1508.13 188.012Z" fill="black"/>
</mask>
<g mask="url(#mask0)">
<path d="M1724.5 25.5H1019.5V356.5H1724.5V25.5Z" fill="url(#paint0_linear)"/>
</g>
<defs>
<linearGradient id="paint0_linear" x1="1038.59" y1="339.003" x2="1648.61" y2="86.3861" gradientUnits="userSpaceOnUse">
<stop stop-color="#F5B100"/>
<stop offset="1" stop-color="#FFE040"/>
</linearGradient>
</defs>
</svg>
